<?xml version="1.0" standalone="no"?>
<!DOCTYPE svg PUBLIC "-//W3C//DTD SVG 20010904//EN"
 "http://www.w3.org/TR/2001/REC-SVG-20010904/DTD/svg10.dtd">
<svg version="1.0" xmlns="http://www.w3.org/2000/svg"
 width="512.000000pt" height="512.000000pt" viewBox="0 0 512.000000 512.000000"
 preserveAspectRatio="xMidYMid meet">
<metadata>
Created by potrace 1.14, written by Peter Selinger 2001-2017
</metadata>
<g transform="translate(0.000000,512.000000) scale(0.100000,-0.100000)"
fill="#000000" stroke="none">
<path d="M2600 4934 c-386 -47 -663 -124 -955 -268 -480 -236 -847 -591 -1046
-1011 -92 -195 -136 -372 -146 -586 -13 -290 51 -545 192 -763 87 -135 252
-278 413 -358 48 -24 62 -36 62 -53 0 -12 -25 -233 -56 -491 -60 -507 -61
-547 -22 -687 34 -125 92 -221 193 -323 80 -81 102 -97 195 -142 107 -52 219
-82 304 -82 65 0 710 59 778 71 42 7 75 6 125 -3 106 -20 379 -17 488 6 405
84 744 330 1015 738 214 322 364 698 450 1128 56 282 64 378 64 710 0 328 -13
461 -69 695 -154 648 -586 1148 -1153 1335 -196 64 -314 82 -567 85 -126 2
-246 1 -265 -1z m430 -756 c230 -32 425 -139 570 -313 148 -179 239 -391 286
-665 25 -148 30 -501 10 -680 -57 -494 -211 -917 -445 -1217 -130 -167 -278
-272 -437 -313 -174 -45 -345 -12 -547 106 -44 25 -80 44 -81 42 -2 -2 -7 -39
-12 -83 l-9 -80 -299 -28 c-165 -15 -300 -26 -302 -24 -1 1 70 614 159 1361
151 1264 164 1360 182 1368 28 11 587 139 592 135 2 -2 -60 -534 -137 -1181
-77 -648 -140 -1189 -140 -1202 0 -21 10 -30 58 -52 49 -22 71 -26 152 -26 76
0 104 4 142 21 131 60 221 158 308 338 156 322 231 713 231 1215 0 325 -22
518 -81 684 -41 117 -75 172 -149 246 -79 79 -160 123 -263 144 -102 21 -182
20 -322 -4 -146 -25 -244 -57 -368 -122 -274 -143 -449 -371 -509 -663 -36
-174 -18 -450 36 -542 14 -23 25 -46 25 -52 0 -20 -171 -13 -243 9 -75 23
-155 88 -188 151 -55 109 -64 321 -19 464 143 457 660 845 1270 951 185 32
360 36 530 12z"/>
</g>
</svg>
