<svg xmlns="http://www.w3.org/2000/svg" id="instagram_10_" data-name="instagram (10)" width="29.53" height="29.536" viewBox="0 0 29.53 29.536">
	<path id="Path_31" data-name="Path 31" d="M29.9,8.684A10.792,10.792,0,0,0,29.218,5.1,7.566,7.566,0,0,0,24.9.779,10.82,10.82,0,0,0,21.313.092C19.732.017,19.23,0,15.22,0S10.708.017,9.133.087A10.8,10.8,0,0,0,5.55.773,7.207,7.207,0,0,0,2.93,2.481a7.272,7.272,0,0,0-1.7,2.614A10.821,10.821,0,0,0,.542,8.678C.467,10.259.449,10.761.449,14.771s.017,4.512.087,6.087a10.792,10.792,0,0,0,.687,3.583,7.565,7.565,0,0,0,4.321,4.321,10.822,10.822,0,0,0,3.583.687c1.575.069,2.077.087,6.087.087s4.512-.017,6.087-.087a10.79,10.79,0,0,0,3.583-.687,7.555,7.555,0,0,0,4.322-4.321,10.829,10.829,0,0,0,.687-3.583c.069-1.575.087-2.077.087-6.087S29.973,10.259,29.9,8.684Zm-2.66,12.059a8.1,8.1,0,0,1-.508,2.741,4.9,4.9,0,0,1-2.8,2.8,8.124,8.124,0,0,1-2.741.508c-1.558.069-2.025.087-5.966.087s-4.414-.017-5.966-.087a8.091,8.091,0,0,1-2.741-.508,4.545,4.545,0,0,1-1.7-1.1,4.592,4.592,0,0,1-1.1-1.7,8.126,8.126,0,0,1-.508-2.741c-.069-1.558-.087-2.025-.087-5.966s.017-4.414.087-5.966a8.091,8.091,0,0,1,.508-2.741,4.489,4.489,0,0,1,1.108-1.7,4.585,4.585,0,0,1,1.7-1.1A8.13,8.13,0,0,1,9.266,2.77c1.558-.069,2.025-.087,5.966-.087s4.414.017,5.966.087a8.1,8.1,0,0,1,2.741.508,4.542,4.542,0,0,1,1.7,1.1,4.591,4.591,0,0,1,1.1,1.7,8.128,8.128,0,0,1,.508,2.741c.069,1.558.087,2.025.087,5.966S27.314,19.185,27.244,20.742Zm0,0" transform="translate(-0.449 0)" fill="#fff"/>
	<path id="Path_32" data-name="Path 32" d="M132.536,124.5a7.587,7.587,0,1,0,7.587,7.587A7.589,7.589,0,0,0,132.536,124.5Zm0,12.509a4.922,4.922,0,1,1,4.922-4.922A4.922,4.922,0,0,1,132.536,137.009Zm0,0" transform="translate(-117.766 -117.317)" fill="#fff"/>
	<path id="Path_33" data-name="Path 33" d="M365.992,90.373a1.771,1.771,0,1,1-1.772-1.771A1.771,1.771,0,0,1,365.992,90.373Zm0,0" transform="translate(-341.563 -83.489)" fill="#fff"/>
</svg>