<svg xmlns="http://www.w3.org/2000/svg" width="25.828" height="29.536" viewBox="0 0 25.828 29.536">
	<path id="tik-tok_4_" data-name="tik-tok (4)" d="M57.1,6.488A5.629,5.629,0,0,1,51.473.865.865.865,0,0,0,50.608,0H45.974a.865.865,0,0,0-.865.865v19A3.305,3.305,0,1,1,41.8,16.56a.865.865,0,0,0,.865-.865V11.06A.865.865,0,0,0,41.8,10.2a9.67,9.67,0,1,0,9.67,9.67v-8.41a11.905,11.905,0,0,0,5.622,1.4.865.865,0,0,0,.865-.865V7.353a.865.865,0,0,0-.865-.865Zm-.865,4.6A10.168,10.168,0,0,1,51.114,9.2a.865.865,0,0,0-1.371.7v9.966a7.94,7.94,0,1,1-8.8-7.893V14.9a5.036,5.036,0,1,0,5.9,4.962V1.731h2.954a7.368,7.368,0,0,0,6.437,6.437v2.918Z" transform="translate(-32.133)" fill="#fff"/>
</svg>